<svg xmlns="http://www.w3.org/2000/svg" viewBox="0 0 52 45.39"><defs><style>.cls-1{fill:#fff;}.cls-2{fill:none;stroke:#000;stroke-linecap:round;stroke-linejoin:round;stroke-width:0.73px;}</style></defs><title>charging</title><g id="Layer_3" data-name="Layer 3"><rect x="29" y="13.77" width="23" height="23" rx="5.34"/><path class="cls-1" d="M32,25.51l2,2.81,2-2.81H34.75s.06-3.73,3.1-5.05a6.39,6.39,0,0,1,5.73.35.77.77,0,0,0,1-.44.85.85,0,0,0-.31-.89,7.94,7.94,0,0,0-7.6-.22c-2.54,1.4-3.27,3.84-3.44,6.19Z"/><path class="cls-1" d="M48.72,25.59l-1.93-2.82-2,2.8H46s-.08,3.73-3.13,5a6.42,6.42,0,0,1-5.73-.38.76.76,0,0,0-1,.42.85.85,0,0,0,.31.9,7.93,7.93,0,0,0,7.59.27c2.55-1.38,3.29-3.82,3.48-6.17Z"/><polygon class="cls-1" points="39.8 21.55 38.48 24.53 39.63 24.53 38.19 27.52 39.45 27.52 39.34 29.86 41.69 26.66 40.31 26.66 42.66 23.67 41.4 23.67 42.43 21.67 39.8 21.55"/><path id="mobile-solid" d="M19.55,0H3.45A3.44,3.44,0,0,0,0,3.45v29.9A3.44,3.44,0,0,0,3.45,36.8h16.1A3.44,3.44,0,0,0,23,33.35V3.45A3.44,3.44,0,0,0,19.55,0Zm-8,34.5a2.3,2.3,0,1,1,2.3-2.3,2.3,2.3,0,0,1-2.3,2.3Z"/><rect x="39.06" y="37.02" width="3.33" height="5" rx="0.33"/><rect x="10.5" y="37.29" width="2" height="3" rx="0.26"/><path class="cls-2" d="M41,39.52c0,3-1.49,5.5-3.33,5.5H14.83c-1.84,0-3.33-2.46-3.33-5.5"/></g></svg>