<svg xmlns="http://www.w3.org/2000/svg" viewBox="0 0 23 23"><defs><style>.cls-1{fill:#fff;}</style></defs><title>powerbank</title><g id="Layer_3" data-name="Layer 3"><rect width="23" height="23" rx="5.34"/><path class="cls-1" d="M3,11.74l2,2.8,2-2.8H5.75s.06-3.73,3.1-5A6.4,6.4,0,0,1,14.58,7a.76.76,0,0,0,1-.43.85.85,0,0,0-.31-.89,7.92,7.92,0,0,0-7.6-.22C5.16,6.88,4.43,9.33,4.26,11.68Z"/><path class="cls-1" d="M19.72,11.82,17.79,9l-2,2.79H17s-.08,3.73-3.13,5a6.4,6.4,0,0,1-5.73-.39.77.77,0,0,0-1,.43.83.83,0,0,0,.31.89A7.9,7.9,0,0,0,15,18c2.55-1.38,3.29-3.82,3.48-6.17Z"/><polygon class="cls-1" points="10.8 7.78 9.48 10.76 10.63 10.76 9.19 13.74 10.45 13.74 10.34 16.09 12.69 12.88 11.31 12.88 13.66 9.9 12.4 9.9 13.43 7.89 10.8 7.78"/></g></svg>