<svg id="Layer_3" data-name="Layer 3" xmlns="http://www.w3.org/2000/svg" viewBox="0 0 191 114.5"><defs><style>.cls-1{fill:#fff;}</style></defs><title>roskilde_logo</title><path class="cls-1" d="M0,79S45,46,47,0h4s48,65,93,7h3s6,50,44,78c-1,0-9,5-15,11h-2s-11.5-52.5-60.5-49.5-67,68-67,68h-4S46.5,66.5,0,79Z"/><path class="cls-1" d="M87.61,72a7.35,7.35,0,0,1,3,.58,6.8,6.8,0,0,1,2.26,1.61,7.14,7.14,0,0,1,1.43,2.46,9.53,9.53,0,0,1,.5,3.14,10.63,10.63,0,0,1-.34,2.73,12.4,12.4,0,0,1-1,2.39,17.12,17.12,0,0,1-1.39,2.19c-.52.7-1.08,1.42-1.67,2.15l-4.37,5.37a15.36,15.36,0,0,1,1.66-.47A7.88,7.88,0,0,1,89.27,94h4.17a1.51,1.51,0,0,1,1.21.51,1.91,1.91,0,0,1,.45,1.33v3.32H79.4V97.3a4.09,4.09,0,0,1,.18-1.15,2.77,2.77,0,0,1,.65-1.1l6.43-7.8a22.9,22.9,0,0,0,1.45-1.89,13.54,13.54,0,0,0,1-1.78,10.07,10.07,0,0,0,.6-1.75A8.53,8.53,0,0,0,89.91,80a4.1,4.1,0,0,0-.63-2.46,2.27,2.27,0,0,0-1.94-.86,2.38,2.38,0,0,0-1,.19,2.73,2.73,0,0,0-.8.49,3.13,3.13,0,0,0-.61.74,4.49,4.49,0,0,0-.4.92,2.79,2.79,0,0,1-.62,1.2,1.42,1.42,0,0,1-1,.37l-.33,0a2.25,2.25,0,0,1-.36-.06L79.7,80a11.54,11.54,0,0,1,1-3.5A8.06,8.06,0,0,1,82.38,74a6.67,6.67,0,0,1,2.37-1.48A8.15,8.15,0,0,1,87.61,72Z"/><path class="cls-1" d="M113.34,85.71a26.06,26.06,0,0,1-.63,6.1A13.79,13.79,0,0,1,111,96.08a7.4,7.4,0,0,1-2.63,2.52,6.75,6.75,0,0,1-3.31.83,6.67,6.67,0,0,1-3.29-.83,7.35,7.35,0,0,1-2.61-2.52,13.79,13.79,0,0,1-1.73-4.27,30.32,30.32,0,0,1,0-12.2,13.75,13.75,0,0,1,1.73-4.28,7.32,7.32,0,0,1,2.61-2.51A6.77,6.77,0,0,1,105,72a6.85,6.85,0,0,1,3.31.82A7.37,7.37,0,0,1,111,75.33a13.75,13.75,0,0,1,1.74,4.28A25.94,25.94,0,0,1,113.34,85.71Zm-4.91,0a28.37,28.37,0,0,0-.29-4.56,10.49,10.49,0,0,0-.77-2.79,3.13,3.13,0,0,0-1.1-1.39,2.27,2.27,0,0,0-1.24-.38,2.22,2.22,0,0,0-1.23.38,3.1,3.1,0,0,0-1.08,1.39,11,11,0,0,0-.75,2.79,29.76,29.76,0,0,0-.28,4.56,29.81,29.81,0,0,0,.28,4.57,11.34,11.34,0,0,0,.75,2.79,3.14,3.14,0,0,0,1.08,1.4,2.29,2.29,0,0,0,1.23.37,2.35,2.35,0,0,0,1.24-.37,3.16,3.16,0,0,0,1.1-1.4,10.83,10.83,0,0,0,.77-2.79A28.42,28.42,0,0,0,108.43,85.71Z"/><path class="cls-1" d="M117.82,95h4.29V81.47c0-.66,0-1.36,0-2.08l-2.53,2.52a1.55,1.55,0,0,1-.49.34,1.25,1.25,0,0,1-.48.1,1.24,1.24,0,0,1-.71-.21,1.57,1.57,0,0,1-.47-.45L116,79.3l7-7h3.92V95h3.68v4.13H117.82Z"/><path class="cls-1" d="M139.59,88.67a5.36,5.36,0,0,1-2.18-.47,5.72,5.72,0,0,1-2-1.43A7.1,7.1,0,0,1,134,84.36a9.65,9.65,0,0,1-.56-3.44,10.57,10.57,0,0,1,.56-3.45,9,9,0,0,1,1.6-2.84,7.6,7.6,0,0,1,2.47-1.92A7.25,7.25,0,0,1,141.3,72a7.62,7.62,0,0,1,3.24.66A6.89,6.89,0,0,1,147,74.52a8.46,8.46,0,0,1,1.52,2.85A11.94,11.94,0,0,1,149,81a16.38,16.38,0,0,1-.18,2.49,15.6,15.6,0,0,1-.49,2.22,16.16,16.16,0,0,1-.75,2c-.3.65-.63,1.28-1,1.91l-4.82,8.22a2.47,2.47,0,0,1-1,.9,3.08,3.08,0,0,1-1.49.37h-4.38L142,89l.41-.6c.12-.19.25-.38.37-.58a5.61,5.61,0,0,1-1.5.66A6.34,6.34,0,0,1,139.59,88.67Zm4.87-8.18a6,6,0,0,0-.23-1.72,3.57,3.57,0,0,0-.66-1.24,2.71,2.71,0,0,0-1-.76,3.33,3.33,0,0,0-1.31-.26,2.55,2.55,0,0,0-1.28.31,2.82,2.82,0,0,0-1,.84,3.88,3.88,0,0,0-.6,1.26,6,6,0,0,0-.2,1.57q0,4,3.09,4a2.75,2.75,0,0,0,2.34-1.1A4.73,4.73,0,0,0,144.46,80.49Z"/></svg>