<svg id="Layer_2" data-name="Layer 2" xmlns="http://www.w3.org/2000/svg" viewBox="0 0 633.5 258"><defs><style>.cls-1,.cls-2{fill:none;stroke-linecap:round;stroke-linejoin:round;}.cls-1{stroke:#fff;stroke-width:11px;}.cls-2{stroke:#f40b0b;stroke-width:10px;}.cls-3{fill:#fff;}.cls-4{fill:#b7cb2e;}</style></defs><title>volt_logo</title><path class="cls-1" d="M5.5,66.5S41.5,223.5,61,223c21.5-.55,54.5-156.5,54.5-156.5"/><path class="cls-2" d="M193.5,182.5"/><path class="cls-3" d="M159.5,133.5l34,49,35-49h-21s1-65,54-88,96,4,100,6c3.17,1.58,15.11,2.54,18-7.55A14.75,14.75,0,0,0,374,28.38C350.14,10.14,288.26-1.17,241.5,24.5c-44.36,24.35-57,67-60,108Z"/><path class="cls-3" d="M451.22,135,417.55,85.73,382.23,134.5l21,.14s-1.42,65-54.58,87.64-96-4.63-99.95-6.66c-3.16-1.61-15.09-2.64-18,7.43a14.73,14.73,0,0,0,5.37,15.6c23.72,18.4,85.53,30.12,132.45,4.76C413,219.35,426,176.79,429.22,135.81Z"/><line class="cls-1" x1="498" y1="5.5" x2="498" y2="223.5"/><path class="cls-1" d="M581,29V199s0,29,47,20"/><line class="cls-1" x1="541" y1="71.18" x2="620.5" y2="71.18"/><polygon class="cls-4" points="295.5 64.5 272.5 116.5 292.5 116.5 267.5 168.5 289.5 168.5 287.5 209.5 328.5 153.5 304.5 153.5 345.5 101.5 323.5 101.5 341.5 66.5 295.5 64.5"/></svg>